<svg xmlns="http://www.w3.org/2000/svg" viewBox="0 0 560 160" role="img" aria-label="Betabots logo">
  <defs>
    <filter id="soft-shadow" x="-20%" y="-20%" width="140%" height="140%" color-interpolation-filters="sRGB">
      <feDropShadow dx="0" dy="3" stdDeviation="2" flood-color="#222221" flood-opacity=".22"/>
    </filter>
  </defs>
  <rect width="560" height="160" fill="#fffefa"/>
  <g transform="translate(24 18)">
    <g filter="url(#soft-shadow)">
      <rect x="42" y="23" width="58" height="78" rx="8" fill="#222221" transform="rotate(10 71 62)"/>
      <rect x="32" y="19" width="62" height="84" rx="9" fill="#222221" transform="rotate(5 63 61)"/>
      <rect x="20" y="16" width="68" height="88" rx="10" fill="#222221"/>
    </g>
    <circle cx="54" cy="45" r="12" fill="#fffefa"/>
    <path d="M34 78c1.7-15.5 12.2-24.5 20-24.5S72.3 62.5 74 78c.3 3-2 5.5-5 5.5H39c-3 0-5.3-2.5-5-5.5z" fill="#fffefa"/>
    <path d="M33 90h31M33 101h39" fill="none" stroke="#fffefa" stroke-width="5.5" stroke-linecap="round"/>
    <circle cx="78" cy="96" r="9.5" fill="#f2c94c"/>
    <circle cx="78" cy="96" r="9.5" fill="none" stroke="#222221" stroke-width="3"/>
  </g>
  <text x="154" y="100" fill="#222221" font-family="Avenir Next, Hanken Grotesk, Segoe UI, Arial, sans-serif" font-size="66" font-weight="900" letter-spacing="0">Betabots</text>
</svg>
