<svg xmlns="http://www.w3.org/2000/svg" viewBox="0 0 128 128" role="img" aria-label="Betabots mark">
  <defs>
    <filter id="soft-shadow" x="-20%" y="-20%" width="140%" height="140%" color-interpolation-filters="sRGB">
      <feDropShadow dx="0" dy="3" stdDeviation="2" flood-color="#222221" flood-opacity=".22"/>
    </filter>
  </defs>
  <g filter="url(#soft-shadow)">
    <rect x="42" y="23" width="58" height="78" rx="8" fill="#222221" transform="rotate(10 71 62)"/>
    <rect x="32" y="19" width="62" height="84" rx="9" fill="#222221" transform="rotate(5 63 61)"/>
    <rect x="20" y="16" width="68" height="88" rx="10" fill="#222221"/>
  </g>
  <circle cx="54" cy="45" r="12" fill="#fffefa"/>
  <path d="M34 78c1.7-15.5 12.2-24.5 20-24.5S72.3 62.5 74 78c.3 3-2 5.5-5 5.5H39c-3 0-5.3-2.5-5-5.5z" fill="#fffefa"/>
  <path d="M33 90h31M33 101h39" fill="none" stroke="#fffefa" stroke-width="5.5" stroke-linecap="round"/>
  <circle cx="78" cy="96" r="9.5" fill="#f2c94c"/>
  <circle cx="78" cy="96" r="9.5" fill="none" stroke="#222221" stroke-width="3"/>
</svg>
